<?xml version="1.0" standalone="no"?>
<!DOCTYPE svg PUBLIC "-//W3C//DTD SVG 20010904//EN"
 "http://www.w3.org/TR/2001/REC-SVG-20010904/DTD/svg10.dtd">
<svg version="1.0" xmlns="http://www.w3.org/2000/svg"
 width="300" height="90" viewBox="0 0 300 90">
  <metadata>
  Mattias.design; Stjernstrom Logo
  </metadata>
  <g transform="translate(0,90) scale(0.1,-0.1)" fill="black" stroke="none">
    <defs>  
      <linearGradient id="divider">
        <stop offset="0%" stop-color="#c63c3c">
          <animate attributeName="stop-color" values="#c63c3c;#ea5455;#ffb760;#ea5455;#c63c3c" dur="3s" repeatCount="indefinite" />
        </stop>
        <stop offset="33%" stop-color="#ea5455">
          <animate attributeName="stop-color" values="#ea5455;#c63c3c;#ea5455;#ffb760;#ea5455" dur="3s" repeatCount="indefinite" />
        </stop>
        <stop offset="50%" stop-color="#ffb760">
          <animate attributeName="stop-color" values="#ffb760;#ea5455;#c63c3c;#ea5455;#ffb760" dur="3s" repeatCount="indefinite" />
        </stop>
        <stop offset="67%" stop-color="#ea5455">
          <animate attributeName="stop-color" values="#ea5455;#ffb760;#ea5455;#c63c3c;#ea5455" dur="3s" repeatCount="indefinite" />
        </stop>
        <stop offset="100%" stop-color="#c63c3c">
          <animate attributeName="stop-color" values="#c63c3c;#ea5455;#ffb760;#ea5455;#c63c3c" dur="3s" repeatCount="indefinite" />
        </stop>

    </linearGradient>
    </defs>
    <path fill="url('#divider')" stroke-dashoffset="100%" d="M1528 1075 c-87 -59 -244 -368 -312 -616 -35 -124 -183 -239 -252
-194 -40 26 -31 50 28 69 117 38 222 132 234 211 14 96 -54 158 -148 136 -63
-14 -134 -62 -192 -131 -49 -57 -65 -85 -91 -158 -18 -54 -52 -102 -71 -102
-18 0 -18 5 6 76 23 71 25 103 6 149 -21 49 -57 69 -111 62 -25 -4 -56 -14
-69 -22 -24 -16 -25 -16 -44 27 -38 87 -112 92 -212 16 -52 -39 -54 -40 -81
-24 -15 9 -39 16 -54 16 -33 0 -85 -50 -85 -81 0 -12 -14 -70 -31 -128 -18
-58 -34 -119 -37 -134 -9 -55 64 -98 110 -64 9 7 35 49 58 93 41 77 118 181
146 197 38 22 36 -6 -12 -155 -15 -44 -23 -86 -19 -98 6 -20 52 -50 78 -50 18
0 60 46 82 90 23 45 91 144 110 160 19 16 19 5 2 -70 -35 -153 63 -236 192
-164 l47 27 48 -34 c42 -30 55 -34 109 -33 67 1 136 26 195 71 33 25 35 25 45
7 19 -34 65 -74 86 -74 18 0 81 64 81 82 0 10 55 134 79 178 20 38 46 58 57
47 5 -4 1 -36 -6 -70 -34 -146 -10 -205 88 -215 40 -3 60 1 102 22 52 26 53
26 74 8 70 -64 163 -54 248 26 28 27 49 37 85 42 67 8 76 4 98 -37 22 -40 68
-73 103 -73 29 0 91 32 116 59 15 16 22 18 33 10 7 -6 13 -17 13 -24 0 -22 51
-55 85 -55 43 0 118 52 163 112 20 26 40 48 44 48 4 0 22 -9 40 -20 58 -35
122 -20 180 43 33 37 37 77 8 95 -24 14 -43 7 -79 -31 -13 -14 -29 -23 -37
-20 -19 7 -18 90 1 127 50 96 -33 190 -107 121 -29 -27 -32 -35 -47 -116 -9
-51 -52 -136 -100 -199 -19 -23 -20 -24 -27 -6 -4 11 0 67 9 125 21 132 21
126 -5 151 -47 43 -97 14 -123 -72 -18 -60 -77 -167 -109 -198 -23 -20 -26
-21 -32 -6 -10 26 4 93 36 174 32 79 30 97 -11 126 -40 28 -96 -17 -129 -103
-12 -31 -26 -66 -31 -79 -8 -21 -35 -40 -44 -30 -2 2 5 33 16 68 26 82 20 142
-17 181 -33 35 -64 42 -114 29 -39 -11 -95 -59 -105 -92 -3 -9 -19 -20 -36
-23 -42 -9 -91 -62 -135 -145 -40 -76 -100 -138 -117 -121 -7 7 -2 30 14 73
54 146 8 249 -112 251 -32 0 -46 4 -42 11 4 6 23 36 43 66 37 54 87 160 109
232 19 60 11 116 -22 149 -35 35 -52 36 -99 4z m76 -21 c23 -22 20 -102 -5
-171 -44 -118 -149 -273 -214 -316 -41 -26 -64 -97 -71 -216 l-5 -76 31 74
c37 90 92 174 131 202 77 54 156 25 166 -61 3 -33 -2 -65 -21 -116 -30 -81
-32 -116 -11 -134 38 -31 140 60 194 172 34 73 70 108 108 108 l25 0 -21 -34
c-12 -19 -30 -60 -41 -92 -50 -144 2 -198 102 -105 l41 37 -28 42 c-49 74 -47
186 4 241 36 38 99 43 131 11 38 -38 17 -170 -41 -251 l-19 -27 31 -7 c22 -5
43 -1 77 17 43 22 48 29 72 99 37 105 56 132 89 124 14 -4 27 -8 29 -9 1 -2
-11 -32 -28 -68 -82 -174 -54 -323 41 -225 47 49 125 184 134 232 8 47 21 65
46 65 28 0 30 -13 15 -82 -19 -81 -30 -209 -21 -237 15 -50 77 0 149 119 40
66 51 94 58 147 10 88 49 128 86 91 17 -17 15 -39 -8 -89 -38 -84 -19 -189 33
-189 29 1 50 17 75 60 17 28 22 31 28 17 9 -25 -39 -83 -79 -96 -53 -18 -104
11 -122 67 -6 22 -9 20 -37 -25 -54 -86 -100 -135 -145 -155 -41 -18 -46 -18
-68 -4 -29 19 -40 66 -32 148 l5 60 -40 -69 c-49 -84 -73 -112 -116 -130 -27
-11 -38 -11 -60 -1 -34 16 -64 73 -60 113 l3 30 -45 -23 c-33 -17 -55 -22 -85
-18 -36 4 -43 1 -87 -40 -27 -25 -65 -52 -85 -60 -71 -30 -134 5 -137 76 -1
17 -2 30 -2 30 -1 0 -21 -20 -45 -44 -66 -66 -150 -84 -193 -40 -20 19 -20 74
-1 138 40 131 -6 190 -84 108 -22 -23 -53 -77 -80 -140 -53 -125 -75 -156
-101 -142 -21 11 -41 91 -33 133 5 24 -3 19 -63 -41 -76 -76 -132 -102 -214
-102 -57 0 -110 32 -124 75 -6 17 -11 31 -12 33 -1 2 -22 -17 -46 -41 -70 -70
-151 -72 -179 -4 -11 25 -9 43 11 123 23 88 23 95 7 111 -13 13 -21 14 -41 5
-30 -13 -125 -144 -163 -224 -25 -52 -31 -57 -53 -52 -14 3 -28 9 -33 13 -4 4
6 43 22 87 59 165 64 234 15 234 -50 0 -181 -159 -236 -286 -17 -39 -28 -54
-43 -54 -49 0 -50 12 -12 129 20 60 39 133 43 161 7 52 23 70 62 70 29 0 34
-27 17 -88 -9 -30 -14 -56 -12 -58 2 -2 20 20 40 49 42 60 75 94 131 131 79
53 132 24 129 -72 0 -32 -8 -77 -17 -102 -17 -49 -20 -51 47 40 55 75 134 104
177 65 26 -24 26 -74 -1 -160 -27 -90 -23 -119 17 -123 26 -3 38 4 72 43 22
26 44 61 48 78 19 90 126 227 208 267 51 24 103 26 135 4 20 -15 23 -23 19
-65 -10 -95 -116 -183 -260 -213 -26 -6 -28 -10 -28 -51 0 -142 184 -114 305
47 25 33 45 66 45 74 0 8 16 65 36 127 68 210 200 457 268 498 37 23 31 22 50
3z m346 -734 c-6 -11 -15 -20 -20 -20 -4 0 -15 -3 -24 -6 -21 -8 -21 24 -1 73
l16 37 19 -32 c16 -25 18 -37 10 -52z"/>
  </g>
Mattias.design Logotype
</svg>
